<?xml version="1.0" encoding="UTF-8"?>
<svg version="1.1" xmlns="http://www.w3.org/2000/svg" width="186" height="242">
<path d="M0 0 C4.95725232 0.52131717 8.28207993 2.85203212 12.3125 5.5625 C13.28026367 6.19961914 13.28026367 6.19961914 14.26757812 6.84960938 C15.84973954 7.89266393 17.42552501 8.94537872 19 10 C17.44533803 14.08332902 14.74912156 16.08208993 11.375 18.75 C10.37210938 19.54921875 9.36921875 20.3484375 8.3359375 21.171875 C7.56507812 21.77515625 6.79421875 22.3784375 6 23 C-0.10737442 21.23536928 -6.07433507 19.30442525 -12 17 C-8.75127084 10.53248388 -4.97080336 5.257305 0 0 Z " fill="#B965E1" transform="translate(84,10)"/>
<path d="M0 0 C14.68475528 19.50319061 22.88045132 40.36364557 21 65 C20.12074358 69.57395568 18.79591309 73.70976318 17 78 C16.71125 78.7425 16.4225 79.485 16.125 80.25 C11.96561561 89.75716431 5.06503055 95.54992006 -4.16796875 99.90625 C-6.79297919 100.92004714 -9.22795318 101.55404 -12 102 C-11.86368164 102.84256348 -11.86368164 102.84256348 -11.72460938 103.70214844 C-7.41046761 130.96973675 -9.41963938 154.19084191 -16.48095703 180.80786133 C-17.07680142 182.94890685 -17.07680142 182.94890685 -17 185 C-12.5921304 176.16136279 -8.6587367 167.38723503 -5.5625 158 C-0.9429305 144.21043877 5.33677111 131.95165941 15 121 C15.46535156 120.39285156 15.93070312 119.78570312 16.41015625 119.16015625 C22.15665364 111.77180247 30.46445791 105.74615459 39 102 C39.99 102 40.98 102 42 102 C40.52843409 106.19783539 38.39905364 109.47523602 35.875 113.125 C24.14708716 130.90026676 19.19175624 151.04758262 16.5 171.9375 C14.39968057 188.05674759 8.92984759 202.40218905 -4 213 C-13.97480856 219.97753167 -22.84096478 222.06424816 -35 221 C-44.84263848 218.79605042 -52.80515648 213.65901376 -58.5625 205.3671875 C-66.017292 193.0910898 -68.9582715 180.06603324 -71.08642578 166.05297852 C-73.39033432 150.93978708 -77.83958115 138.66012203 -89.78125 128.6015625 C-93.58884975 125.85311902 -97.7382537 123.93518072 -102 122 C-103.33604881 121.33879217 -104.67034635 120.67397582 -106 120 C-106 119.01 -106 118.02 -106 117 C-83.91813074 119.35502997 -66.0687598 124.62245566 -51.25 142.25 C-44.00984718 152.19246338 -41.08225733 162.59308214 -38.73583984 174.48510742 C-38.55102051 175.39881104 -38.36620117 176.31251465 -38.17578125 177.25390625 C-38.02020752 178.07189697 -37.86463379 178.8898877 -37.7043457 179.73266602 C-36.90580235 182.30322827 -35.71807112 183.94848841 -34 186 C-32.60306871 181.78957983 -31.21601134 177.57606375 -29.83740234 173.35961914 C-29.36864627 171.93037899 -28.89735988 170.50196583 -28.42333984 169.07446289 C-24.06541902 155.94081356 -21.62706069 144.09987355 -21.6875 130.1875 C-21.68878906 128.95805664 -21.69007812 127.72861328 -21.69140625 126.46191406 C-21.78147845 117.96585337 -22.42702399 110.14775736 -25 102 C-25.68964844 101.8040625 -26.37929687 101.608125 -27.08984375 101.40625 C-35.50866909 98.72700792 -42.10689959 95.00409472 -46.6328125 87.17578125 C-53.03781466 73.46907662 -53.15188287 56.2184581 -48 42 C-43.7729856 31.95632477 -37.63851784 24.54917845 -30 17 C-29.04867187 16.03320312 -29.04867187 16.03320312 -28.078125 15.046875 C-21.89188468 9.18910761 -8.44679267 -2.11169817 0 0 Z " fill="#B965E1" transform="translate(126,16)"/>
<path d="M0 0 C7.31840365 0.25063026 14.2823726 1.10017821 21.375 2.875 C22.02791016 3.03645508 22.68082031 3.19791016 23.35351562 3.36425781 C27.79286104 4.52715857 31.83322766 6.11580062 36 8 C35.484375 8.763125 34.96875 9.52625 34.4375 10.3125 C33.89416016 11.13814453 33.89416016 11.13814453 33.33984375 11.98046875 C32.34914583 13.47373646 31.3381663 14.95359334 30.31640625 16.42578125 C20.24757735 31.38827753 17.26107037 49.82017004 20.68359375 67.5390625 C21.58981657 70.20884758 22.61744234 72.54596015 24 75 C24.4125 75.7321875 24.825 76.464375 25.25 77.21875 C30.25550822 84.84077389 38.23696325 89.09499201 47 91 C47 91.33 47 91.66 47 92 C35.74879599 94.12286868 26.42897736 91.36455972 17 85 C3.75099417 74.64921419 -1.65671367 58.26316693 -3.75683594 42.22460938 C-5.25095513 28.55551889 -4.36170479 13.08511438 0 0 Z " fill="#B965E1" transform="translate(50,28)"/>
</svg>
